<?xml version='1.0' encoding='utf-8'?>
<svg xmlns:xlink="http://www.w3.org/1999/xlink" xmlns="http://www.w3.org/2000/svg" viewBox="0 0 279.86 293.36"> <defs> <linearGradient id="b"> <stop stop-color="#293d17" offset="0"/> <stop stop-color="#8dc15e" stop-opacity="0" offset="1"/> </linearGradient> <linearGradient id="d"> <stop stop-color="#d2e7bf" offset="0"/> <stop stop-color="#699b3c" stop-opacity="0" offset="1"/> </linearGradient> <linearGradient id="a"> <stop stop-color="#c8e1b2" offset="0"/> <stop stop-color="#8dc15e" stop-opacity="0" offset="1"/> </linearGradient> <linearGradient id="c"> <stop stop-color="#202f12" offset="0"/> <stop stop-color="#8dc15e" stop-opacity="0" offset="1"/> </linearGradient> <linearGradient id="e"> <stop stop-color="#334b1d" offset="0"/> <stop stop-color="#334b1d" stop-opacity="0" offset="1"/> </linearGradient> <linearGradient id="al" x1="176.3" x2="407.28" y1="372.12" y2="101.56" gradientTransform="matrix(1.3423 0 -.037068 1.3212 -273.17 -151.66)" gradientUnits="userSpaceOnUse"> <stop offset="0"/> <stop stop-opacity="0" offset="1"/> </linearGradient> <linearGradient id="ai" x1="293.34" x2="321.64" gradientUnits="userSpaceOnUse"> <stop stop-opacity=".36111" offset="0"/> <stop stop-color="#d4d43e" stop-opacity="0" offset="1"/> </linearGradient> <linearGradient id="y" x1="312.55" x2="318.25" y1="85.579" y2="72.815" gradientUnits="userSpaceOnUse"> <stop stop-color="#a6a628" offset="0"/> <stop stop-color="#dada64" offset="1"/> </linearGradient> <linearGradient id="x" x1="309.29" x2="318.71" y1="85.402" y2="78.472" gradientUnits="userSpaceOnUse"> <stop stop-color="#9c9c1f" offset="0"/> <stop stop-color="#1d1d06" stop-opacity="0" offset="1"/> </linearGradient> <linearGradient id="q" x1="219.69" x2="352.36" gradientUnits="userSpaceOnUse"> <stop stop-color="#b7d88e" offset="0"/> <stop stop-color="#8fc34f" stop-opacity=".87037" offset="1"/> </linearGradient> <linearGradient id="j" x1="249.81" x2="272.01" y1="174.51" y2="90.571" gradientUnits="userSpaceOnUse"> <stop stop-color="#c3e0aa" stop-opacity=".44037" offset="0"/> <stop stop-color="#699b3c" stop-opacity="0" offset="1"/> </linearGradient> <linearGradient id="ak" x1="233.16" x2="156.01" y1="187.74" y2="142.4" gradientUnits="userSpaceOnUse" xlink:href="#b"/> <linearGradient id="aj" x1="262.72" x2="340.08" y1="199.5" y2="200.84" gradientUnits="userSpaceOnUse" xlink:href="#b"/> <linearGradient id="ah" x1="213.3" x2="266.5" y1="333.45" y2="107.4" gradientUnits="userSpaceOnUse" xlink:href="#b"/> <linearGradient id="ag" x1="308.73" x2="296.91" y1="242.76" y2="209.5" gradientUnits="userSpaceOnUse" xlink:href="#a"/> <linearGradient id="af" x1="298.06" x2="278.95" y1="266.98" y2="233.39" gradientUnits="userSpaceOnUse" xlink:href="#a"/> <linearGradient id="ae" x1="317.52" x2="299.76" y1="289.66" y2="247" gradientUnits="userSpaceOnUse" xlink:href="#c"/> <linearGradient id="ad" x1="318.98" x2="298.9" y1="289.16" y2="239.41" gradientUnits="userSpaceOnUse" xlink:href="#b"/> <linearGradient id="ac" x1="185.16" x2="206.01" y1="218.17" y2="187.6" gradientUnits="userSpaceOnUse" xlink:href="#a"/> <linearGradient id="ab" x1="190.22" x2="170.92" y1="223.54" y2="239.66" gradientUnits="userSpaceOnUse" xlink:href="#a"/> <linearGradient id="aa" x1="155.14" x2="190.49" y1="258.89" y2="224.63" gradientUnits="userSpaceOnUse" xlink:href="#b"/> <linearGradient id="z" x1="159.11" x2="207" y1="283.9" y2="246.44" gradientUnits="userSpaceOnUse" xlink:href="#c"/> <linearGradient id="w" x1="299.59" x2="255.02" y1="46.647" y2="140.19" gradientUnits="userSpaceOnUse" xlink:href="#a"/> <linearGradient id="v" x1="323.67" x2="339.1" y1="186.9" y2="161.71" gradientUnits="userSpaceOnUse" xlink:href="#b"/> <linearGradient id="u" x1="341.62" x2="332.21" gradientUnits="userSpaceOnUse" xlink:href="#d"/> <linearGradient id="t" x1="363.11" x2="348.9" y1="158.21" y2="151.16" gradientUnits="userSpaceOnUse" xlink:href="#a"/> <linearGradient id="s" x1="354.01" x2="340.91" gradientUnits="userSpaceOnUse" xlink:href="#a"/> <linearGradient id="r" x1="211.99" x2="183.54" y1="158.47" y2="128.48" gradientUnits="userSpaceOnUse" xlink:href="#c"/> <linearGradient id="p" x1="243.7" x2="172.16" y1="686.89" y2="511.07" gradientTransform="matrix(.45246 0 0 .24495 90.465 -6.7532)" gradientUnits="userSpaceOnUse" xlink:href="#c"/> <linearGradient id="o" x1="305.03" x2="318.39" y1="147.79" y2="156.35" gradientUnits="userSpaceOnUse" xlink:href="#c"/> <linearGradient id="n" x1="307.6" x2="317.02" y1="79.547" y2="78.87" gradientUnits="userSpaceOnUse" xlink:href="#a"/> <linearGradient id="m" x1="690.68" x2="699.61" y1="888.84" y2="862.84" gradientUnits="userSpaceOnUse" xlink:href="#d"/> <linearGradient id="l" x1="690.68" x2="699.61" y1="888.84" y2="862.84" gradientUnits="userSpaceOnUse" xlink:href="#e"/> <linearGradient id="k" x1="320.7" x2="311.51" y1="92.742" y2="87.67" gradientUnits="userSpaceOnUse" xlink:href="#e"/> <linearGradient id="i" x1="254.91" x2="301.76" y1="111.91" y2="74.17" gradientUnits="userSpaceOnUse" xlink:href="#e"/> <radialGradient id="f" cx="683.65" cy="861.48" r="3.3295" gradientTransform="matrix(1.2217 .16522 -.21723 1.6063 -347.26 -1409.6)" gradientUnits="userSpaceOnUse"> <stop stop-color="#8dc15e" offset="0"/> <stop stop-color="#8dc15e" stop-opacity="0" offset="1"/> </radialGradient> <radialGradient id="h" cx="536.01" cy="222.86" r="45.587" gradientTransform="matrix(-.35152 .37306 -.25262 -.23804 509.52 -86.74)" gradientUnits="userSpaceOnUse" xlink:href="#d"/> <radialGradient id="g" cx="643.48" cy="246.44" r="37.574" gradientTransform="matrix(-.29284 .16091 -.16095 -.29291 534.12 38.715)" gradientUnits="userSpaceOnUse" xlink:href="#d"/> </defs> <g transform="translate(-123.57 -49.692)"> <g transform="translate(15.001 15)"> <path d="m334.98 72.069c-12.975 3.6952-18.788 5.9142-26.091 9.0702-15.38 1.9414-42.422 3.8846-52.816 10.211-11.86 10.607-20.498 25.066-22.87 40.667-15.025 8.335-41.585 2.0013-46.28 22.874 0.24454 11.43 8.6737 21.189 19.539 24.192-4.617 6.6958 0.28016 38.606-12.104 23.244-14.228-14.067-35.646-22.738-55.974-15.319-16.294 8.3593-6.0558 27.318-0.81901 39.1 11.787 40.145 26.894 80.694 68.296 81.414 11.274-2.3468 13.926-13.699 15.222-11.232-2.1438-12.6 12.518-6.227 18.79-4.2894 2.1235 10.076 16.333 26.013 31.614 19.557 29.187-5.6132 54.536-20.27 75.483-42.32 9.6068-13.907 15.507-31.203-0.80326-39.951-11.994-6.0479-33.176-6.9778-46.345-5.1507 9.0488-13.009 17.368-26.868 15.407-41.433 1.4972-7.5382 10.51-2.7399 13.976 0.74898 5.4829 8.204 20.724 18.338 25.841 1.6697 4.5014-21.281 11.138-32.006 18.384-41.358-0.25115-0.95444-4.1836-4.673-7.4302 0.12633-4.8457 10.513-12.908 19.443-13.497 1.9009 3.0867-21.014-6.5689-25.661-6.9472-10.186 1.176 7.4649 2.5643 18.267-4.6714 22.859-0.17865-7.1346-1.0767-20.717-7.0656-13.479-5.2938 4.162 3.3846 24.216-12.284 11.799-4.4878-2.8055 2.8988 13.131 9.2681-8.0193 3.1637-8.7043 9.122-11.778 12.575-22.425 2.3425-7.7854 4.8863-26.385 5.7482-38.071-1.9491-7.6686-3.637-15.632-14.144-16.2zm-39.412 14.781c0.18107 0.20884-0.49425 0.43997 0 0zm-89.179 91.82c0.42607-0.13548-0.01914 0.56503 0 0z" fill="url(#al)" fill-rule="evenodd"/> <path d="m225.49 124.59s-10.748 4.7024-17.466 5.3741-16.794 2.0153-19.481 5.3741-8.0612 4.0306-8.733 10.076 3.3588 16.122 7.3894 19.481 8.3971 6.3818 14.107 7.3894 21.832-5.0383 29.222-13.771-5.0382-33.252-5.0382-33.924z" fill="#8dc15e" fill-rule="evenodd"/> <path d="m312.48 133.33s-2.0153 8.0612 3.3588 13.435 17.466 12.764 18.809 13.435-0.67176-3.3588-0.67176-10.076 4.7024-4.7024 5.3741-2.687 0.67177 10.748 2.6871 12.092 6.0459-10.076 6.0459-12.092-2.0153-14.779-1.3435-16.794 5.3741-2.0153 5.3741 1.3435-0.67177 22.168 2.0153 24.855 12.764-10.748 13.435-12.092 2.0153-2.6871 4.7024 0-11.42 13.435-10.748 15.451-1.6794 11.084-3.023 11.084-5.0382 14.443-7.0535 16.458-8.733 4.7024-12.092 2.6871-25.527-20.153-28.214-18.138-2.6871 6.0459-4.7024 8.0612-20.153-4.7024-18.809-22.168 24.855-24.855 24.855-24.855z" fill="#86c052" fill-rule="evenodd"/> <path d="m300.39 49.692c-11.42 0.67176-19.481 9.4047-19.481 9.4047s-13.099-8.3971-20.489-1.6794-8.0612 21.496-8.0612 21.496-10.748 7.3894-18.809 21.497-8.733 31.573-10.748 36.947-20.153 20.825-22.168 31.573-5.3741 33.588-5.3741 33.588-22.504-24.519-44.001-24.519-20.825 3.3588-26.199 10.076 7.3894 31.573 7.3894 31.573-0.40136 24.114 21.767 50.313 44.066 33.658 50.784 32.315 14.779-14.779 14.107-17.466 18.138 2.0154 18.138 2.0154 4.3665 20.489 22.504 20.489 68.856-15.786 84.307-35.939 10.076-34.26 7.0535-37.619-9.0688-15.451-27.206-14.107-23.512 0.67177-23.512 0.67177 8.733-12.764 8.733-22.84 0.67176-13.435 0.67176-13.435l-8.733-26.199s11.45-10.808 15.451-28.886c1.2983-5.8665 4.7024-8.0612 4.7024-17.466s-1.3435-28.886-1.3435-28.886 0.67177-1.3435-0.67175-7.3894-2.6871-4.7024-2.6871-4.7024-3.6947-15.451-16.122-20.825z" fill="#86c052" fill-rule="evenodd"/> <path d="m206.34 226.7s0-11.42-1.3435-15.451-9.6422-9.683-9.6422-9.683 1.1435-6.7558 4.5464-27.936c1.0972-6.8293 0.4831-5.8477 1.5151-7.97 3.8489-7.9156 11.419-16.006 12.668-17.414 5.7465-6.4779 9.0501-11.563 9.0501-11.563s2.0722-7.3489 2.5968-14.319c0.57757-7.6744 4.6324-15.504 6.1361-18.696 6.8975-14.642 21.135-25.502 20.628-25.191 0 0-12.567 22.938-17.269 31.671s-8.0612 22.168-11.42 28.214-9.4047 31.573-10.748 36.275-2.0153 26.871-3.3588 32.917c-1.0609 4.7741-3.3588 18.809-3.3588 19.145z" fill="url(#ak)" fill-rule="evenodd"/> <path d="m293.34 152.14s-7.0535 26.535-13.099 41.314-10.076 18.809-12.764 28.214-4.7024 18.474-4.7024 18.474 14.041-11.983 24.184-15.786c5.3741-2.0153 13.435-2.6871 13.435-2.6871s8.4273-18.209 9.4047-24.855c1.6794-11.42-4.3665-31.237-8.3971-37.283s-7.3894-5.3741-8.0612-7.3894z" fill="url(#aj)" fill-rule="evenodd"/> <path d="m293.34 152.14s7.0535-40.306 8.3971-49.711c0.3359-2.3512 2.4154-7.7176 2.0783-11.997-0.67177-8.5283 4.3282 0.14264 8.46-0.09277 5.2312-0.29804 8.0892-2.4503 7.3475-13.605-0.98953-14.883-15.807-8.9009-14.548-14.202 0.92486-3.8922-0.48284-5.1117 1.0286-6.7911 6.0459-6.7177 14.107 28.214 14.107 34.26s4.7265 19.385-3.023 37.955c-3.2001 7.6684-4.3665 12.428-7.0535 17.802-4.7501 9.5002-10.076 13.435-10.076 13.435l-6.7177-7.0536z" fill="url(#ai)" fill-rule="evenodd"/> <path d="m218.77 284.14s-1.3435-13.435-6.0459-26.199-7.3894-12.764-6.7177-18.809 9.7406-40.642 9.7406-51.39 8.733-34.26 12.764-45.68 25.527-59.115 28.886-61.802 36.947 2.0153 38.962 6.0459-4.7024 46.352-7.3894 57.1-10.076 40.978-15.451 52.398-14.779 47.695-16.122 55.085-12.092 21.497-16.122 25.527-4.7024 10.748-4.7024 10.748-3.7787-1.7634-8.2291-2.5192-9.5727-0.50378-9.5727-0.50378z" fill="url(#ah)" fill-rule="evenodd"/> <path d="m279.57 244.84c8.0612-6.0459 17.466-10.748 26.199-12.764s24.855-4.0306 30.229-1.3435 12.092 4.7024 13.435 3.3588 0.67177-4.7024-7.3894-10.076-29.558-6.0459-38.291-4.0306-16.122 4.7024-24.184 8.733-13.435 8.733-16.122 12.092-2.0153 12.092-3.3588 14.107 19.481-9.4047 19.481-10.076z" fill="url(#ag)" fill-rule="evenodd"/> <path d="m244.3 273.39c4.7024-4.7023 28.214-21.496 40.306-26.199s24.797-11.912 38.627-11.756c17.142 0.19307 25.527 4.0306 25.527 4.0306s-17.466-1.3435-29.558 3.3588-34.26 12.092-48.367 21.496-24.855 18.809-31.573 20.153 4.0306-10.076 5.0382-11.084z" fill="url(#af)" fill-rule="evenodd"/> <path d="m237.25 287.83c4.0306 12.763 8.733 14.779 15.451 18.809 8.6405 5.1842 49.829-6.5541 70.535-18.809 3.8622-2.286 9.5663-5.2403 21.496-16.122 9.5338-8.6962 6.7177-18.138 6.7177-18.138s-22.168 18.138-30.229 22.168-41.649 13.435-46.352 12.092-6.7177 4.0305-10.748 5.374-11.42 1.3435-15.451-1.3435-11.42-4.0305-11.42-4.0305z" fill="url(#ae)" fill-rule="evenodd"/> <path d="m259.41 295.22s33.724-5.0441 50.382-12.092c17.466-7.3894 36.947-22.168 38.962-25.527s4.0306-2.0153 6.0459-7.3894c2.8403-7.5741-8.0612-10.748-8.0612-10.748s-20.825 0-28.886 4.0306c-6.1861 3.093-40.978 15.451-46.352 20.153s-24.184 18.138-28.886 19.481-5.3741 1.3435-5.3741 1.3435 0.92417 4.9077 2.0153 6.0459c4.286 4.4708 14.107 4.7024 20.153 4.7024z" fill="url(#ad)" fill-rule="evenodd"/> <path d="m205.34 234.76s-14.779-21.496-24.855-30.901-19.481-16.794-28.214-18.138-10.076 0-14.107-4.0306 5.3741-2.0153 10.076-3.3588 21.832 2.3512 29.222 9.0688 16.619 11.704 21.496 18.138c3.2719 4.3159 5.9366 3.3913 6.7176 12.764 0.67177 8.0612 0 16.122-0.33587 16.458z" fill="url(#ac)" fill-rule="evenodd"/> <path d="m139.84 188.41c4.0306 0.67176 25.527 5.3741 42.321 27.542s23.512 30.229 27.542 38.962 11.42 31.573 8.0612 34.932-6.0459-2.0152-12.764-5.3742-19.481-5.3742-20.153-9.4046 8.0612-4.0306 12.092-2.6871 7.3894-1.3436 5.3741-7.3894-7.3894-2.6871-14.779-6.7177-9.4047-26.871-22.168-38.291-25.527-31.573-25.527-31.573z" fill="url(#ab)" fill-rule="evenodd"/> <path d="m123.72 189.42s-2.0153 10.748 8.733 30.901c5.3741 10.076 18.138 28.886 24.184 35.604s22.84 22.168 27.542 23.512 14.779 4.7023 17.466 2.6871-4.0306-16.122-12.092-30.901-37.283-48.031-47.359-54.749-17.466-7.3894-18.474-7.0535z" fill="url(#aa)" fill-rule="evenodd"/> <path d="m132.45 219.98s-0.42916 25.795 22.209 51.014c23.052 25.68 41.532 30.912 45.563 30.912s7.3733 1.9087 14.52-7.0243c2.6871-3.3588 3.3588-7.3894 3.3588-7.3894s1.3435 9.4048-6.0459 5.3742c-10.026-5.4685-17.466-5.3742-20.825-6.0459s-4.7024-9.4048-4.7024-9.4048-15.451-7.3894-28.886-24.184-24.855-32.245-25.191-33.252z" fill="url(#z)" fill-rule="evenodd"/> <path d="m262.44 56.074c-9.4047 7.3894-9.4047 21.497-9.4047 21.497s12.092 4.0306 22.168-3.3588c8.8185-6.4669 7.3894-8.0612 8.0612-12.764s-16.122-8.0612-20.825-5.3741z" fill="url(#h)" fill-rule="evenodd"/> <path d="m308.45 65.814s-6.7177-3.3588-11.42 0-6.0459 10.076-5.3741 14.779 6.7177 8.0612 12.092 8.733c1.9997 0.24997 12.764 0 12.764 0s-5.2507-5.2312-6.0459-9.4047c-1.2746-6.6898 3.4075-12.299 3.4075-11.968l-5.4228-2.1391z" fill="url(#g)" fill-rule="evenodd"/> <path d="m313.49 68.165s-5.3741 6.0459-4.0306 10.748 4.7024 10.748 6.0459 10.748 4.7024-6.0459 4.7024-9.4047-1.3435-6.0459-2.0153-8.0612-3.3588-4.7024-4.7024-4.0306z" fill="url(#y)" fill-rule="evenodd"/> <path d="m314.46 68.066c0 8.0612-1.4821 10.267 1.717 12.527 2.2893 1.6175 2.077-4.929 1.991-8.1231-0.0685-2.5435-3.7079-4.404-3.7079-4.404z" fill="#1d1d06" fill-rule="evenodd"/> <path d="m313.32 68.296c-3.3588 4.0306-4.0306 6.7552-4.0306 9.4423 0 3.0848 4.5457 10.615 5.1377 11.358 1.169 1.4673 2.5876-0.27398 3.2594-1.6175s2.4131-4.9763 2.4131-4.9763-2.0772 4.6404-5.1001 2.961c-1.88-1.0445-4.008-4.6006-4.2914-8.2844-0.33589-4.3665 2.9478-8.5473 2.612-8.8832z" fill="url(#x)" fill-rule="evenodd"/> <path d="m296.53 54.058c-3.0229 0-14.443 7.0535-14.443 7.0535s1.6794 4.3665-2.6871 9.7406-14.107 7.7253-18.474 7.7253-13.099 20.825-17.13 27.878-31.069 58.276-3.3588 67.344 43.833-9.4047 44.504-13.435 12.764-69.36 13.099-70.703-5.0382-2.3512-7.0535-7.7253 1.3435-10.076 4.0306-13.771 7.7253-4.7024 8.3971-4.7024 1.6794-3.023 0.67177-5.0382-7.0536-4.3665-7.5574-4.3665z" fill="url(#w)" fill-rule="evenodd"/> <path d="m311.48 141.72s-3.023 10.58-10.412 16.458c-2.8311 2.252 7.0535 20.825 7.0535 20.825s1.3303-7.2431 3.6947-6.7177c3.0229 0.67175 24.519 15.115 25.863 17.13s8.733 2.3512 12.764-1.0076 4.0306-5.71 6.0459-11.756 3.3588-2.6871 4.7024-5.3741 2.0153-9.0688 0-9.0688 10.748-12.428 11.42-14.443-12.092 10.748-12.764 13.435-4.7024 4.7024-5.3741 9.4047-1.3435 12.764-4.0306 12.092-8.733-8.0612-16.794-10.076-19.481-9.4047-19.481-14.107-2.6871-16.794-2.6871-16.794z" fill="url(#v)" fill-rule="evenodd"/> <path d="m337.51 145.92s-1.3435 12.428 0 14.779 4.3665 2.6871 4.0306 0.67177-1.0753-6.3197-1.3435-9.4047c-0.67177-7.7253-3.0229-5.71-2.6871-6.0459z" fill="url(#u)" fill-rule="evenodd"/> <path d="m369.42 143.24c-1.3435 2.0153-9.7406 12.428-10.412 13.435s-1.3435 4.0306-4.0306 4.0306-9.7406 1.6794-7.0535 5.3741 3.0229 7.7253 6.0459 7.0535 5.3741-5.3741 5.71-7.3894-0.33588-4.7024 1.0076-6.7177 9.2581-11.543 9.7406-12.428c2.0153-3.6947-1.3435-3.3588-1.0076-3.3588z" fill="url(#t)" fill-rule="evenodd"/> <path d="m350.61 130.14c1.0076 3.0229 0.33589 10.412 0.67177 13.099s1.0076 10.412 1.3435 12.092 3.0229 1.6794-0.33588 2.687-6.3818 1.6794-4.7024-1.6794 1.6794-18.138 1.3435-21.496-1.0076-4.3665 0-5.0382 1.6794 0.33588 1.6794 0.33588z" fill="url(#s)" fill-rule="evenodd"/> <path d="m222.13 138.7c-2.0153 3.3588-9.4047 11.42-12.764 16.122s-10.076 16.122-9.4047 17.466-10.076-3.6947-14.107-9.0688-3.3588-7.0536-2.0153-9.7406 5.0382-8.3971 12.092-9.0688 9.7406 1.3435 13.099 1.3435 13.435-6.7177 13.099-7.0535z" fill="url(#r)" fill-rule="evenodd"/> <path d="m225.15 128.96c-4.0306 4.0306-2.687 5.71-11.42 6.3818s-13.435-1.3435-18.809 0.67176-8.0612 6.7177-8.0612 6.7177 5.3741-4.7024 11.42-4.0306 18.138 2.0153 19.481 2.0153 4.7024-2.0153 4.7024-2.0153l2.687-9.7406z" fill="url(#q)" fill-rule="evenodd"/> <path d="m202.99 164.23-7.3894-4.0306s1.3435-2.0153 4.0306-1.3435 3.6947 1.0076 5.71 0.33588-2.3512 5.71-2.3512 5.0382z" fill="url(#p)" fill-rule="evenodd"/> <path d="m312.32 141.05s-8.0612 15.451-10.748 17.13 0.67177 7.3894 2.0153 7.7253 0.55993-3.929 3.8627-8.733c9.2368-13.435 4.8703-15.786 4.8703-16.122z" fill="url(#o)" fill-rule="evenodd" opacity=".53299"/> <path d="m312.53 68.892c-3.3588 4.0306-4.9256 6.5563-4.9256 9.2434 0 3.0848 4.6843 10.523 5.1377 11.358 0.47288 0.87065 1.8867 1.0234 3.4583-0.0264 1.2435-0.8307 0.1821-0.49854-0.52055-0.05381s-1.5891-0.44343-2.266-1.7626c-1.0837-2.1123-3.8091-6.3906-4.0925-10.074-0.33589-4.3665 3.5445-8.3484 3.2086-8.6843z" fill="url(#n)" fill-rule="evenodd"/> <path transform="matrix(1.5262 0 0 1.5262 -744.56 -1230.6)" d="m694.44 879.4a3.7516 9.4437 0 1 1-7.5032 0 3.7516 9.4437 0 1 1 7.5032 0z" fill="url(#m)" fill-rule="evenodd" opacity=".53299"/> <path transform="matrix(1.3423 0 0 1.3423 -616.86 -1070.7)" d="m694.44 879.4a3.7516 9.4437 0 1 1-7.5032 0 3.7516 9.4437 0 1 1 7.5032 0z" fill="url(#l)" fill-rule="evenodd" opacity=".53299"/> <path d="m319.71 83.062s-1.1991 2.9052-2.337 5.022c-0.81997 1.5254-2.2868 1.973-2.9022 2.1137-1.2998 0.29722-2.965 0.07412-2.965 0.07412s1.79 3.8783 3.9778 3.58 4.475-4.1767 4.475-5.37-0.1989-5.4695-0.24862-5.4198z" fill="url(#k)" fill-rule="evenodd"/> <path d="m231.61 134.33s-4.7114 13.13 7.5578 22.276c5.4161 4.0373 25.482 7.649 31.822 5.9667 12.964-3.44 15.911-13.127 16.707-17.9s7.9556-32.618 6.3645-36.596-10.342-17.502-23.867-17.502-20.685 5.9667-25.458 12.331-11.933 32.22-13.127 31.425z" fill="url(#j)" fill-rule="evenodd"/> <path d="m302.99 63.573s-7.9176 1.0216-11.749 10.472 5.3636 14.303 6.6406 14.814c0.63851 0.2554 4.8023-3.4119 7.8857-1.5963 3.2492 1.9132 4.6292 3.1287 4.6292 3.1287s-3.1926-2.5541-5.2358-10.472-2.0432-16.601-2.171-16.346z" fill="url(#i)" fill-rule="evenodd"/> <path d="m298.52 82.857c-0.51081 2.2987-0.51081 6.1298-0.51081 6.1298s-1.5324 4.8527 1.277 6.1298 4.0865 0 4.3419-1.0216 0.51081-5.3636 0.51081-6.3852 0-5.619 0.25542-6.6406 1.0216-0.76622 1.5324-3.0649 0-3.0649-2.0433-3.8311-5.3636 0.76623-5.619 2.2987 0.25541 6.6406 0.25541 6.3852z" fill="url(#f)" fill-rule="evenodd"/> <path d="m301.65 84.473c0.24417 4.5188-0.25206 9.0566-1.385 13.427-0.99109 7.0444-1.9845 14.092-2.9058 21.143-1.564 7.9819-4.2596 15.701-5.6097 23.73-1.477 6.6468-3.2138 13.232-4.9847 19.805-0.05684-1.9511 0.66236-4.7048 0.91719-6.952 1.3451-8.7133 3.2849-17.32 5.466-25.856 1.147-5.5739 2.7961-11.052 3.2948-16.739 1.5779-9.549 2.5426-19.224 5.2073-28.559z" fill="#afd38f"/> <path d="m257.47 74.517c-1.0346 4.2646-3.6607 7.853-5.7694 11.607-2.315 4.6527-5.2097 9.0134-7.0611 13.893-2.6034 5.9726-5.8102 11.652-8.824 17.413-2.8478 6.4162-4.8101 13.197-7.9173 19.503-1.9261 4.643-3.6146 9.3863-5.7417 13.944 3.0902-9.6783 5.8496-19.498 9.758-28.885 3.8382-7.0519 7.0123-14.451 10.668-21.587 3.0708-6.6683 6.6104-13.123 10.279-19.488 1.4686-2.1818 3.2452-4.1451 4.6079-6.3999z" fill="#afd38f"/> </g> </g> </svg>